<?xml version="1.0" encoding="utf-8"?>
<!-- Generator: Adobe Illustrator 16.0.4, SVG Export Plug-In . SVG Version: 6.00 Build 0)  -->
<!DOCTYPE svg PUBLIC "-//W3C//DTD SVG 1.1//EN" "http://www.w3.org/Graphics/SVG/1.1/DTD/svg11.dtd">
<svg version="1.1" id="Layer_1" xmlns="http://www.w3.org/2000/svg" xmlns:xlink="http://www.w3.org/1999/xlink" x="0px" y="0px"
	 width="50px" height="50px" viewBox="0 0 50 50" enable-background="new 0 0 50 50" xml:space="preserve">
<title>Artboard 1 copy 8</title>
<path fill="#FFFFFF" d="M48.193,23.145H1.806c-1.024,0-1.854,0.83-1.854,1.855c0,1.025,0.831,1.855,1.854,1.855h46.388
	c1.025,0,1.855-0.83,1.855-1.855C50.049,23.975,49.219,23.145,48.193,23.145z"/>
<path fill="#FFFFFF" d="M48.193,38.76H1.806c-1.024,0-1.854,0.83-1.854,1.854c0,1.025,0.831,1.855,1.854,1.855h46.388
	c1.025,0,1.855-0.83,1.855-1.855C50.049,39.59,49.219,38.76,48.193,38.76z"/>
<path fill="#FFFFFF" d="M1.806,11.242h46.388c1.025,0,1.855-0.832,1.855-1.856s-0.83-1.854-1.855-1.854H1.806
	c-1.024,0-1.854,0.831-1.854,1.854C-0.049,10.411,0.781,11.242,1.806,11.242z"/>
</svg>
